<svg width="40" height="40" viewBox="0 0 40 40" fill="none" xmlns="http://www.w3.org/2000/svg">
<rect x="9" y="4" width="23" height="28" fill="white"/>
<path d="M29.9683 0H10C4.50794 0 0 4.50794 0 10.0317V30C0 35.4921 4.50794 40 10 40H29.9683C35.4921 40 40 35.4921 40 29.9683V10.0317C40 4.50794 35.4921 0 29.9683 0ZM25.3651 20H21.5873V32.381H16.8254V20H14.2857V14.9206H16.5079V12.7619C16.5079 10.7302 17.5238 7.52381 21.8095 7.52381H25.7143V11.746H22.9524C22.5079 11.746 21.9048 12.0317 21.9048 13.0159V14.9206H25.8095L25.3651 20Z" fill="#4267B2"/>
</svg>
