<svg width="40" height="40" viewBox="0 0 40 40" fill="none" xmlns="http://www.w3.org/2000/svg">
<g clip-path="url(#clip0)">
<path d="M2.49952 2.72117C-0.643815 5.98617 -0.00048171 9.45451 -0.00048171 19.9912C-0.00048171 28.7412 -1.52715 37.5128 6.46285 39.5778C8.95785 40.2195 31.0645 40.2195 33.5562 39.5745C36.8829 38.7162 39.5895 36.0178 39.9595 31.3128C40.0112 30.6562 40.0112 9.33784 39.9579 8.66784C39.5645 3.65617 36.4795 0.767841 32.4145 0.182841C31.4828 0.047841 31.2962 0.00784099 26.5162 -0.000492342C9.56118 0.00784099 5.84452 -0.747159 2.49952 2.72117Z" fill="url(#paint0_linear)"/>
<path d="M19.9967 5.23105C13.945 5.23105 8.19835 4.69272 6.00335 10.3261C5.09668 12.6527 5.22835 15.6744 5.22835 20.0011C5.22835 23.7977 5.10668 27.3661 6.00335 29.6744C8.19335 35.3111 13.9867 34.7711 19.9933 34.7711C25.7883 34.7711 31.7634 35.3744 33.985 29.6744C34.8934 27.3244 34.76 24.3477 34.76 20.0011C34.76 14.2311 35.0784 10.5061 32.28 7.70938C29.4467 4.87605 25.615 5.23105 19.99 5.23105H19.9967ZM18.6733 7.89272C31.2967 7.87272 32.9033 6.46939 32.0167 25.9644C31.7017 32.8594 26.4517 32.1027 19.9983 32.1027C8.23168 32.1027 7.89335 31.7661 7.89335 19.9944C7.89335 8.08605 8.82668 7.89938 18.6733 7.88938V7.89272ZM27.88 10.3444C26.9017 10.3444 26.1083 11.1377 26.1083 12.1161C26.1083 13.0944 26.9017 13.8877 27.88 13.8877C28.8583 13.8877 29.6517 13.0944 29.6517 12.1161C29.6517 11.1377 28.8583 10.3444 27.88 10.3444ZM19.9967 12.4161C15.8083 12.4161 12.4133 15.8127 12.4133 20.0011C12.4133 24.1894 15.8083 27.5844 19.9967 27.5844C24.185 27.5844 27.5784 24.1894 27.5784 20.0011C27.5784 15.8127 24.185 12.4161 19.9967 12.4161ZM19.9967 15.0777C26.505 15.0777 26.5133 24.9244 19.9967 24.9244C13.49 24.9244 13.48 15.0777 19.9967 15.0777Z" fill="white"/>
</g>
<defs>
<linearGradient id="paint0_linear" x1="2.57622" y1="37.4447" x2="39.752" y2="5.26947" gradientUnits="userSpaceOnUse">
<stop stop-color="#FFDD55"/>
<stop offset="0.5" stop-color="#FF543E"/>
<stop offset="1" stop-color="#C837AB"/>
</linearGradient>
<clipPath id="clip0">
<rect width="40" height="40" fill="white"/>
</clipPath>
</defs>
</svg>
