<svg width="40" height="40" viewBox="0 0 40 40" fill="none" xmlns="http://www.w3.org/2000/svg">
<path d="M32.8455 39.3152C24.2905 40.2283 15.7095 40.2283 7.15454 39.3152C3.74329 38.9511 1.04889 36.2567 0.684814 32.8452C-0.228271 24.2902 -0.228271 15.7095 0.684814 7.15454C1.04889 3.74329 3.74329 1.04889 7.15454 0.684814C15.7095 -0.228271 24.2902 -0.228271 32.8452 0.684814C36.2567 1.04889 38.9511 3.74329 39.3152 7.15454C40.2283 15.7095 40.2283 24.2902 39.3152 32.8452C38.9511 36.2567 36.257 38.9511 32.8455 39.3152Z" fill="url(#paint0_linear)"/>
<path d="M37.1399 8.60068C36.817 5.57364 34.4262 3.18259 31.3989 2.85941C23.8073 2.04947 16.1932 2.04947 8.60165 2.85941C5.57462 3.18259 3.18356 5.57364 2.86038 8.60068C2.05045 16.1922 2.05045 23.8064 2.86038 31.3976C3.18356 34.425 5.57462 36.816 8.60165 37.1389C16.1932 37.9491 23.8073 37.9491 31.3986 37.1389C34.4259 36.816 36.817 34.425 37.1399 31.3976C37.9501 23.8064 37.9501 16.1922 37.1399 8.60068Z" fill="url(#paint1_linear)"/>
<path d="M0.599609 32.0156C0.627075 32.2921 0.655457 32.5686 0.685059 32.8451C1.04913 36.2563 3.74353 38.9507 7.15509 39.3148C15.7101 40.2279 24.2907 40.2279 32.8457 39.3148C36.2573 38.9507 38.9514 36.2563 39.3154 32.8451C39.345 32.5686 39.3734 32.2921 39.4012 32.0156H0.599609Z" fill="url(#paint2_linear)"/>
<path d="M38.8844 34.6546L13.0714 8.84131C12.4949 8.08905 11.588 7.60352 10.5671 7.60352C8.82581 7.60352 7.41406 9.01495 7.41406 10.7563C7.41406 11.7774 7.8999 12.6844 8.65216 13.2606L34.3754 38.9841C36.4546 38.2923 38.1117 36.6947 38.8844 34.6546Z" fill="url(#paint3_linear)"/>
<path d="M13.2149 15.9766H7.91797V32.3969L15.4338 39.9127C21.2389 40.1324 27.0479 39.9338 32.845 39.3149C33.8585 39.2068 34.8079 38.8916 35.6526 38.4143L13.2149 15.9766Z" fill="url(#paint4_linear)"/>
<path d="M31.2043 17.3519C30.2354 16.2896 28.8405 15.623 27.2899 15.623C24.8372 15.623 23.2542 16.4846 22.3121 17.2844L21.2742 15.9764H16.3936V32.3967L23.932 39.9352C26.905 39.8384 29.8768 39.6315 32.8459 39.3148C36.2574 38.9507 38.9515 36.2563 39.3156 32.845C39.5591 30.5641 39.7371 28.2814 39.8506 25.9981L31.2043 17.3519Z" fill="url(#paint5_linear)"/>
<path d="M7.91895 15.9766H13.2156V32.3969H7.91895V15.9766Z" fill="white"/>
<path d="M27.2899 15.625C23.4083 15.625 21.7033 17.7823 21.2742 18.439V15.9784H16.3936V32.3987H21.6905V24.1507C21.6905 21.7673 22.7876 19.9133 24.8686 19.9133C26.9493 19.9133 27.2899 22.2211 27.2899 25.0589V32.3987H32.5868V20.9219C32.5868 17.9965 30.2153 15.625 27.2899 15.625Z" fill="white"/>
<path d="M13.7199 10.7566C13.7199 12.4979 12.3085 13.9094 10.5671 13.9094C8.82581 13.9094 7.41406 12.4979 7.41406 10.7566C7.41406 9.01526 8.82581 7.60352 10.5671 7.60352C12.3085 7.60352 13.7199 9.01526 13.7199 10.7566Z" fill="white"/>
<defs>
<linearGradient id="paint0_linear" x1="13.2808" y1="5.62392" x2="23.3979" y2="27.2699" gradientUnits="userSpaceOnUse">
<stop stop-color="#0077B5"/>
<stop offset="1" stop-color="#0066B2"/>
</linearGradient>
<linearGradient id="paint1_linear" x1="28.4598" y1="24.5373" x2="-29.6549" y2="-6.63759" gradientUnits="userSpaceOnUse">
<stop stop-color="#0066B2" stop-opacity="0"/>
<stop offset="1" stop-color="#07485E"/>
</linearGradient>
<linearGradient id="paint2_linear" x1="20.0003" y1="32.4861" x2="20.0003" y2="40.8461" gradientUnits="userSpaceOnUse">
<stop stop-color="#0066B2" stop-opacity="0"/>
<stop offset="1" stop-color="#07485E"/>
</linearGradient>
<linearGradient id="paint3_linear" x1="21.2" y1="21.3894" x2="6.24394" y2="6.43333" gradientUnits="userSpaceOnUse">
<stop stop-color="#0066B2" stop-opacity="0"/>
<stop offset="1" stop-color="#07485E"/>
</linearGradient>
<linearGradient id="paint4_linear" x1="29.9803" y1="35.2834" x2="-0.137354" y2="21.1657" gradientUnits="userSpaceOnUse">
<stop stop-color="#0066B2" stop-opacity="0"/>
<stop offset="1" stop-color="#07485E"/>
</linearGradient>
<linearGradient id="paint5_linear" x1="37.3075" y1="38.3788" x2="16.3262" y2="17.3975" gradientUnits="userSpaceOnUse">
<stop stop-color="#0066B2" stop-opacity="0"/>
<stop offset="1" stop-color="#07485E"/>
</linearGradient>
</defs>
</svg>
