<svg width="17" height="17" viewBox="0 0 17 17" fill="none" xmlns="http://www.w3.org/2000/svg">
<g clip-path="url(#clip0)">
<path d="M16.6694 13.5177L14.7848 12.2612L13.1094 11.1445C12.7861 10.9294 12.3516 10.9999 12.1129 11.3063L11.0762 12.639C10.8535 12.9282 10.4529 13.0113 10.1336 12.8345C9.43013 12.4432 8.5983 12.0748 6.76292 10.2371C4.92754 8.39933 4.55676 7.56986 4.16547 6.86643C3.98866 6.54708 4.07177 6.14649 4.36096 5.92383L5.69369 4.88714C6.00005 4.64848 6.07061 4.21396 5.85549 3.8906L4.77308 2.26682L3.48225 0.330567C3.26255 0.00099677 2.82275 -0.0979474 2.48308 0.105751L0.994406 0.998839C0.592088 1.23587 0.296351 1.61863 0.168454 2.06777C-0.238644 3.55203 -0.320721 6.82625 4.92664 12.0736C10.174 17.321 13.4479 17.2386 14.9322 16.8315C15.3813 16.7036 15.7641 16.4079 16.0011 16.0055L16.8942 14.5169C17.0979 14.1772 16.999 13.7374 16.6694 13.5177Z" fill="#27E5FF"/>
<path d="M9.67199 2.63698C12.4226 2.64003 14.6516 4.86906 14.6547 7.61968C14.6547 7.78154 14.7859 7.91279 14.9478 7.91279C15.1097 7.91279 15.2409 7.78157 15.2409 7.61968C15.2375 4.54547 12.7462 2.05417 9.67202 2.05078C9.51016 2.05078 9.37891 2.182 9.37891 2.3439C9.37887 2.50573 9.51009 2.63698 9.67199 2.63698Z" fill="#27E5FF"/>
<path d="M9.67202 4.39677C11.4518 4.39887 12.894 5.84113 12.8961 7.62086C12.8961 7.78272 13.0273 7.91397 13.1892 7.91397C13.3511 7.91397 13.4823 7.78276 13.4823 7.62086C13.4799 5.5175 11.7754 3.81297 9.67202 3.81055C9.51016 3.81055 9.37891 3.94176 9.37891 4.10366C9.37891 4.26556 9.51012 4.39677 9.67202 4.39677Z" fill="#27E5FF"/>
<path d="M9.67199 6.15455C10.481 6.15552 11.1365 6.81107 11.1375 7.62006C11.1375 7.78192 11.2687 7.91317 11.4306 7.91317C11.5925 7.91317 11.7237 7.78195 11.7237 7.62006C11.7224 6.48748 10.8046 5.56965 9.67202 5.56836C9.51016 5.56836 9.37891 5.69958 9.37891 5.86147C9.37887 6.02334 9.51009 6.15455 9.67199 6.15455Z" fill="#27E5FF"/>
</g>
<defs>
<clipPath id="clip0">
<rect width="17" height="17" fill="white"/>
</clipPath>
</defs>
</svg>
